<?xml version="1.0" standalone="no"?>
<!DOCTYPE svg PUBLIC "-//W3C//DTD SVG 20010904//EN"
 "http://www.w3.org/TR/2001/REC-SVG-20010904/DTD/svg10.dtd">
<svg version="1.0" xmlns="http://www.w3.org/2000/svg"
 width="877.000000pt" height="638.000000pt" viewBox="0 0 877.000000 638.000000"
 preserveAspectRatio="xMidYMid meet">
<metadata>
Created by potrace 1.16, written by Peter Selinger 2001-2019
</metadata>
<g transform="translate(0.000000,638.000000) scale(0.100000,-0.100000)"
fill="#000000" stroke="none">
<path d="M5450 6138 c-19 -13 -41 -28 -48 -35 -7 -7 -17 -13 -21 -13 -4 0 -16
-17 -27 -37 -10 -21 -26 -44 -34 -50 -13 -12 -13 -14 2 -26 14 -11 4 -17 -74
-41 -61 -19 -86 -31 -77 -37 8 -5 16 -3 21 4 5 8 8 6 8 -5 0 -10 -5 -18 -11
-18 -7 0 -9 -10 -7 -25 3 -13 2 -22 -2 -20 -5 3 -25 -16 -46 -42 -22 -25 -46
-53 -55 -62 -22 -21 -42 -61 -35 -68 3 -4 16 2 28 13 l23 19 -22 -26 c-13 -14
-23 -29 -23 -33 0 -15 -45 -61 -60 -61 -8 0 -15 -9 -15 -20 0 -12 -12 -27 -32
-37 -17 -10 -35 -27 -38 -39 -4 -12 -12 -18 -21 -15 -8 3 -14 -1 -14 -9 0 -7
-16 -19 -35 -25 -19 -6 -33 -16 -30 -21 10 -15 -14 -49 -30 -43 -8 4 -15 1
-15 -5 0 -6 7 -11 15 -11 8 0 12 -6 9 -14 -3 -9 -12 -12 -21 -9 -10 4 -14 2
-10 -4 7 -11 -22 -28 -31 -18 -3 3 1 5 8 5 7 0 11 2 8 5 -9 10 -38 -7 -31 -18
4 -6 0 -8 -10 -4 -10 3 -17 2 -17 -4 0 -6 -5 -7 -10 -4 -6 4 -27 -10 -47 -32
-20 -21 -33 -32 -28 -24 6 10 4 12 -4 7 -7 -5 -10 -10 -7 -13 3 -3 -1 -15 -9
-25 -15 -23 -10 -48 11 -48 8 0 14 -6 14 -12 0 -9 4 -8 10 2 13 20 12 33 -1
24 -7 -4 -10 -1 -7 7 3 8 16 14 29 14 13 0 30 4 38 9 11 7 13 5 8 -7 -5 -12
-1 -17 13 -17 24 0 24 3 0 -51 -31 -67 -36 -74 -54 -73 -19 2 -20 -5 -2 -29
12 -16 14 -16 20 -1 3 9 13 14 21 11 8 -4 16 2 20 14 7 20 25 27 25 8 0 -5 4
-7 10 -4 6 4 7 -1 4 -12 -4 -12 1 -10 15 7 20 24 20 24 14 3 -3 -13 -8 -23
-12 -24 -50 -6 -54 -10 -79 -74 -19 -48 -20 -105 -2 -105 4 0 11 -11 14 -25 4
-14 11 -23 16 -20 5 3 11 -4 15 -15 3 -11 12 -20 20 -20 7 0 15 -7 19 -15 12
-33 22 -12 15 33 -17 102 -13 125 31 165 22 19 40 34 40 31 0 -2 13 2 30 11
41 21 47 19 22 -8 -12 -13 -19 -27 -15 -31 4 -4 -1 -4 -12 0 -11 4 -17 4 -14
1 3 -4 -12 -26 -34 -49 -45 -47 -38 -56 29 -39 25 6 49 9 55 6 5 -4 9 -1 9 4
0 6 8 11 17 11 15 0 14 -2 -3 -16 -13 -11 -15 -17 -6 -20 6 -3 10 -10 6 -15
-3 -5 5 -9 17 -9 18 0 20 -3 11 -12 -15 -15 -42 -19 -42 -7 0 6 -5 7 -11 3 -8
-5 -8 -9 1 -14 9 -6 7 -11 -6 -19 -11 -6 -15 -11 -10 -11 5 0 18 8 30 18 18
15 17 13 -4 -23 -13 -22 -25 -42 -26 -44 -2 -2 -10 2 -19 9 -8 7 -15 11 -15 9
0 -3 -9 -29 -20 -59 l-20 -54 42 -62 c23 -35 48 -66 55 -68 8 -3 11 -11 8 -17
-4 -6 -1 -9 6 -8 22 5 86 -30 86 -47 0 -16 -51 -64 -68 -64 -5 0 -4 9 3 19 7
11 14 18 18 16 3 -1 12 4 20 13 13 14 12 15 -3 9 -20 -7 -22 4 -5 21 7 7 8 12
3 12 -14 -1 -72 -50 -60 -50 6 0 16 5 23 12 9 9 12 9 12 0 0 -7 -8 -19 -19
-28 -18 -16 -18 -54 0 -54 5 0 9 -4 9 -10 0 -5 -7 -10 -16 -10 -9 0 -12 -5 -8
-12 5 -8 13 -4 27 13 10 13 21 23 23 22 2 -2 3 0 2 5 -2 4 -7 6 -12 4 -5 -2
-4 4 4 12 19 23 28 19 24 -11 -1 -14 -15 -37 -31 -49 -21 -17 -24 -23 -11 -24
9 0 24 7 33 16 9 9 18 15 20 12 6 -6 -8 -24 -28 -35 -17 -9 -17 -11 -2 -23 13
-11 15 -11 13 0 -2 7 3 15 9 17 10 3 10 -3 1 -27 -6 -17 -8 -51 -5 -75 5 -36
3 -44 -11 -48 -13 -4 -12 -5 5 -6 15 -1 21 -7 20 -20 0 -10 -6 -17 -13 -14
-24 9 -45 -137 -29 -207 4 -19 13 -42 21 -51 12 -14 11 -17 -11 -29 -14 -7
-25 -17 -25 -22 0 -5 5 -6 12 -2 7 5 8 3 3 -6 -6 -10 -11 -9 -22 5 -10 15 -10
20 0 27 9 6 8 8 -3 8 -12 1 -11 4 4 15 17 13 18 15 2 21 -11 4 -14 10 -7 18 7
8 6 19 -2 32 -7 10 -13 33 -13 51 1 17 -2 29 -6 27 -11 -7 -4 50 7 58 6 5 5 8
-4 8 -7 0 -11 6 -7 15 3 8 1 15 -4 15 -12 0 -6 98 8 112 7 7 12 23 12 36 0 13
4 20 10 17 6 -4 7 1 3 11 -5 13 -3 15 7 9 9 -5 11 -4 6 4 -6 9 -11 9 -21 1
-10 -8 -14 0 -21 37 -4 27 -7 59 -6 71 2 16 -1 21 -8 17 -9 -6 -9 -2 -1 13 12
22 -6 45 -30 40 -8 -2 -13 3 -11 10 3 16 -13 15 -31 -3 -13 -12 -17 -13 -27 0
-6 8 -9 18 -7 22 3 5 -2 17 -10 28 -15 19 -15 19 -9 1 5 -16 4 -17 -9 -6 -8 7
-15 9 -15 5 0 -5 -10 3 -22 18 -14 15 -38 28 -62 31 -36 6 -38 5 -25 -11 34
-45 105 -129 114 -135 6 -5 7 -8 0 -8 -6 0 -41 38 -79 85 -39 46 -75 86 -82
89 -19 7 -75 -24 -68 -36 5 -8 -1 -9 -17 -4 -13 4 -31 8 -40 8 -9 0 -21 10
-28 24 -6 13 -15 24 -20 24 -14 0 -106 -80 -103 -90 3 -16 -3 -12 -35 19 l-30
28 30 44 c23 35 25 40 7 24 -12 -11 -28 -32 -36 -47 -10 -19 -22 -28 -38 -28
-14 0 -26 -5 -28 -12 -2 -6 -10 -8 -17 -4 -7 5 -10 15 -6 24 3 9 3 13 -1 9 -4
-4 -13 1 -21 11 -9 10 -12 11 -7 2 4 -9 3 -12 -2 -7 -5 5 -9 14 -9 20 -1 7 -6
11 -13 9 -7 -1 -11 2 -10 6 3 10 -43 50 -94 81 -21 12 -43 30 -49 39 -7 12 -9
13 -6 2 6 -21 -11 -50 -30 -50 -13 0 -14 -2 -2 -17 13 -15 12 -15 -15 -1 -25
13 -37 13 -77 3 -39 -11 -50 -11 -59 0 -10 12 -49 21 -119 28 -13 1 -26 -4
-28 -10 -3 -9 7 -13 32 -13 20 0 34 -4 30 -10 -3 -5 -13 -6 -21 -3 -20 8 -35
-16 -27 -42 6 -20 5 -20 -16 -1 -25 23 -27 15 -5 -19 14 -22 14 -23 -5 -18
-11 3 -20 8 -19 12 2 22 -4 41 -12 36 -6 -3 -15 4 -20 17 -9 21 -10 20 -5 -6
6 -26 4 -28 -9 -17 -13 11 -16 11 -16 -2 0 -8 -6 -18 -12 -21 -7 -3 -4 -4 6
-3 10 1 21 -4 24 -12 2 -8 0 -11 -6 -7 -5 3 -9 0 -8 -7 0 -6 -3 -12 -9 -12 -5
0 -9 6 -9 13 1 8 -5 11 -17 7 -29 -10 -43 4 -22 21 17 14 17 14 -2 12 -11 -2
-25 -12 -32 -23 -18 -29 -16 -40 4 -24 13 11 17 11 20 1 3 -6 8 -10 12 -8 4 3
8 -4 8 -15 1 -11 -5 -19 -13 -19 -8 0 -12 -4 -9 -10 3 -5 1 -10 -4 -10 -17 0
-13 18 5 28 15 8 14 10 -2 16 -9 4 -21 2 -24 -4 -5 -8 -9 -7 -13 3 -12 32 -68
0 -60 -33 6 -21 -20 -69 -44 -83 -12 -7 -12 -11 -1 -25 7 -9 8 -13 3 -10 -6 4
-18 1 -27 -6 -14 -10 -14 -15 -2 -45 9 -22 19 -31 28 -28 10 4 13 1 10 -7 -3
-7 1 -16 10 -19 8 -3 17 1 20 9 3 8 11 14 18 14 9 0 9 -3 0 -12 -17 -17 -15
-27 7 -25 11 1 17 6 13 12 -11 17 -13 55 -4 55 5 0 17 -8 26 -19 10 -11 28
-18 45 -16 18 1 32 -4 39 -15 9 -14 7 -17 -10 -16 -12 0 -23 -5 -26 -13 -3
-10 0 -11 9 -5 11 6 12 5 2 -8 -7 -8 -11 -17 -8 -19 2 -3 -10 -5 -28 -6 -23
-1 -26 1 -12 5 24 8 33 41 11 38 -9 -1 -19 -5 -22 -9 -4 -4 -13 -2 -21 4 -16
14 -17 -3 -1 -19 9 -9 9 -15 -1 -24 -10 -11 -11 -9 -5 7 7 18 6 19 -11 5 -17
-14 -18 -13 -13 8 5 19 4 21 -8 11 -7 -6 -11 -15 -8 -20 3 -5 1 -9 -5 -9 -5 0
-12 6 -14 13 -4 10 -6 10 -6 0 -1 -7 -7 -13 -15 -13 -9 0 -12 -7 -9 -20 3 -12
0 -20 -8 -20 -8 0 -6 -5 6 -13 12 -10 14 -16 7 -21 -19 -11 -14 -24 15 -39
l27 -14 -30 -1 c-16 0 -36 4 -45 9 -10 5 -20 4 -27 -3 -17 -17 -15 -33 2 -19
12 10 13 8 9 -8 -3 -12 -10 -21 -15 -21 -6 0 -5 -7 2 -15 10 -12 10 -15 -4
-15 -9 0 -16 -4 -16 -9 0 -4 -12 -6 -27 -4 -27 4 -27 4 -9 -11 19 -16 19 -16
-3 -16 -29 0 -22 -22 10 -31 13 -4 20 -8 14 -8 -5 -1 -2 -6 8 -12 9 -5 17 -17
17 -26 0 -11 -8 -14 -30 -11 -18 3 -35 -1 -41 -9 -6 -7 -8 -13 -3 -13 5 0 2
-5 -6 -10 -11 -8 -7 -9 15 -4 17 4 32 10 35 14 12 15 39 18 57 5 10 -8 14 -15
8 -15 -5 -1 -1 -6 10 -11 17 -8 16 -8 -7 -4 -15 3 -30 0 -34 -7 -4 -6 -3 -8 4
-5 11 8 42 -1 42 -12 0 -3 -16 -7 -35 -8 -20 -1 -33 2 -30 7 3 4 -4 6 -16 3
-16 -4 -17 -8 -7 -14 10 -7 9 -9 -4 -10 -10 -1 -24 -2 -30 -3 -7 -1 -12 -12
-12 -26 2 -23 -6 -34 -31 -41 -5 -2 -21 -17 -35 -33 -30 -36 -35 -93 -8 -102
10 -3 16 -10 13 -15 -4 -5 0 -9 9 -9 8 0 17 -6 20 -12 3 -7 3 -3 0 9 -4 18 -1
21 18 17 18 -3 19 -3 5 3 -16 8 -16 9 2 25 17 15 19 14 19 -9 0 -14 -7 -27
-14 -30 -43 -16 5 -23 161 -23 195 0 186 -4 159 74 -9 26 -13 50 -10 53 3 4 6
1 6 -5 0 -6 7 -9 15 -6 8 4 15 10 15 16 0 5 -4 6 -10 3 -5 -3 -10 -2 -10 4 0
5 6 12 13 15 9 5 9 7 0 12 -9 4 -10 11 -3 24 7 14 6 23 -7 36 -13 13 -14 19
-5 22 6 2 12 8 12 13 0 6 -4 7 -10 4 -5 -3 -10 2 -10 11 0 16 1 16 19 0 11
-10 22 -13 25 -8 9 15 -4 42 -20 42 -8 0 -17 7 -20 15 -4 10 -20 15 -46 15
-33 0 -38 -2 -29 -14 9 -10 3 -10 -23 3 -37 17 -46 31 -21 31 8 0 15 -5 15
-11 0 -6 6 -9 13 -6 6 2 11 9 10 15 -2 6 6 10 17 9 10 -1 16 -5 14 -9 -3 -4 6
-8 19 -8 14 0 28 7 31 17 4 10 10 13 14 8 4 -6 12 -11 19 -12 19 -4 3 25 -17
32 -22 7 -16 45 7 45 13 0 13 -3 3 -15 -11 -13 -10 -14 4 -9 9 3 16 11 16 17
0 12 14 0 16 -14 1 -5 2 -12 3 -15 0 -3 10 4 21 17 21 26 23 23 20 -33 -1 -22
3 -38 9 -38 6 0 11 5 11 12 0 6 3 8 7 4 5 -4 0 -13 -9 -20 -11 -8 -17 -29 -18
-67 -1 -29 -1 -58 0 -64 1 -5 2 -13 1 -17 -2 -12 14 -9 27 4 7 7 12 8 12 3 0
-6 5 -3 10 5 7 11 10 11 10 2 0 -7 -16 -20 -35 -28 -38 -16 -47 -25 -15 -17
15 4 20 0 20 -15 0 -12 -4 -23 -10 -27 -5 -3 -7 -12 -4 -19 3 -8 -6 -26 -20
-41 -26 -28 -35 -65 -16 -65 5 0 14 8 19 18 10 16 10 16 11 0 0 -17 15 -18
180 -18 l181 0 -16 30 c-9 17 -12 30 -8 30 5 0 8 14 8 32 0 25 4 31 22 33 27
2 44 15 21 15 -12 0 -15 6 -10 22 l5 22 10 -21 c5 -12 17 -24 26 -26 14 -4 13
-5 -1 -6 -12 -1 -18 -9 -18 -26 0 -33 3 -41 15 -37 6 2 5 -2 -1 -8 -9 -9 -18
-9 -35 1 -20 11 -21 14 -6 17 9 2 17 8 17 14 0 6 -3 8 -7 5 -3 -4 -11 0 -17 9
-10 13 -12 11 -14 -10 -1 -14 3 -28 8 -31 6 -3 10 -11 10 -16 0 -6 -5 -7 -12
-3 -7 5 -8 3 -3 -5 4 -7 15 -11 25 -8 13 3 17 0 13 -9 -3 -8 -9 -11 -14 -8 -5
3 -9 0 -9 -5 0 -15 27 -14 33 2 4 9 6 9 6 0 1 -20 118 -18 118 2 0 8 -5 15
-11 15 -6 0 -5 4 2 9 10 6 7 12 -12 25 -26 17 -35 46 -15 46 6 0 9 -7 6 -14
-4 -10 -1 -13 8 -9 8 3 12 9 9 14 -2 5 -1 17 5 27 7 14 5 21 -10 30 -15 10
-19 9 -19 -2 0 -8 -7 -17 -16 -20 -25 -10 -25 -7 -3 15 13 13 19 29 16 42 -3
12 -8 40 -11 62 -5 37 -4 36 9 -10 l15 -50 -7 45 c-9 60 -12 186 -4 198 8 13
62 19 79 9 7 -5 12 -3 12 7 0 17 19 21 154 36 74 8 95 7 122 -6 58 -28 67 -52
56 -162 -8 -81 -13 -99 -32 -114 -31 -25 -44 -23 -77 11 -15 16 -46 39 -68 50
-34 18 -39 26 -14 23 11 -2 -2 37 -17 49 -11 9 -14 8 -14 -7 0 -16 -9 -19 -56
-21 -63 -2 -72 -6 -55 -27 8 -10 9 -16 1 -21 -6 -3 -8 -11 -5 -16 5 -8 -7 -13
-26 -11 -3 1 -5 -14 -5 -31 1 -23 -3 -31 -13 -29 -11 2 -12 0 -3 -11 7 -8 10
-22 6 -31 -3 -9 -1 -16 4 -16 6 0 9 -9 7 -20 -6 -29 4 -50 24 -51 10 0 11 -2
4 -6 -10 -3 -10 -10 -2 -25 10 -19 20 -19 293 -16 l282 3 23 27 c21 26 21 28
4 29 -10 1 -4 5 12 8 20 5 34 3 41 -5 6 -8 15 -9 25 -3 11 7 10 9 -5 9 -15 0
-16 3 -6 15 16 19 5 32 -13 16 -11 -9 -17 -8 -26 3 -8 10 -9 16 -1 21 6 3 8
11 5 16 -4 5 0 9 7 9 10 0 10 2 -1 9 -9 6 -22 4 -37 -6 -20 -13 -22 -13 -20 3
2 15 61 49 79 45 5 -1 6 3 2 9 -3 6 -11 8 -16 4 -6 -3 -5 4 3 16 12 20 10 24
-27 56 -48 41 -75 51 -86 33 -4 -8 -14 -23 -22 -33 -13 -18 -14 -16 -9 14 2
18 -6 77 -19 132 -26 111 -26 111 -126 111 -29 1 -53 4 -53 9 0 4 -11 8 -25 8
-14 0 -25 -4 -25 -10 0 -5 -5 -10 -11 -10 -5 0 -7 5 -4 10 4 6 -6 10 -24 10
-16 0 -33 -5 -36 -10 -4 -6 -23 -7 -46 -4 -25 4 -39 3 -39 -4 0 -8 -11 -9 -32
-5 -22 4 -29 3 -24 -5 5 -8 0 -11 -13 -9 -58 9 -4 32 102 44 31 3 57 9 57 13
0 15 -14 19 -27 9 -8 -7 -13 -8 -13 -1 0 16 31 23 46 11 12 -10 13 -9 8 5 -3
9 -1 16 5 16 11 0 15 -13 11 -39 -1 -9 4 -12 15 -7 9 3 24 6 33 7 10 1 7 4 -8
9 -22 7 -20 8 15 10 23 2 31 5 18 7 -23 4 -41 52 -24 62 5 4 9 13 9 21 -2 35
3 50 17 50 8 0 15 5 15 10 0 6 -6 10 -14 10 -8 0 -22 10 -30 22 -9 12 -16 16
-16 9 0 -9 -9 -12 -29 -9 -26 4 -29 2 -20 -14 12 -23 8 -76 -7 -89 -7 -6 -21
-6 -38 1 -35 13 -36 13 -37 -7 0 -11 -3 -13 -6 -6 -3 9 -10 10 -24 3 -10 -6
-19 -7 -19 -2 0 12 -39 12 -46 0 -5 -7 -1 -9 9 -5 13 5 17 1 17 -14 0 -11 -4
-18 -9 -15 -10 6 -25 -24 -16 -32 3 -3 18 7 33 21 30 29 61 34 80 15 16 -16
15 -33 -1 -19 -11 8 -20 6 -38 -10 -13 -12 -23 -24 -22 -28 2 -8 -43 -13 -124
-15 -33 0 -59 -5 -56 -10 3 -4 -1 -12 -8 -17 -11 -6 -11 -11 -1 -21 9 -9 12
-9 12 1 0 7 5 9 10 6 6 -3 10 -2 10 3 0 9 47 8 57 -2 12 -11 -11 -28 -33 -23
-13 2 -24 1 -24 -2 0 -12 -57 -41 -65 -33 -5 4 -5 -1 -2 -11 4 -10 7 -23 7
-28 0 -6 5 -7 11 -3 8 5 10 -1 5 -19 -3 -14 -2 -27 3 -29 4 -2 11 -21 14 -43
5 -37 5 -38 -4 -10 -10 28 -51 59 -64 47 -3 -3 -5 -26 -6 -51 0 -25 -4 -66 -8
-91 -7 -38 -9 -40 -10 -13 0 17 -4 39 -8 49 -4 12 -3 15 5 10 7 -4 12 -1 12 8
0 19 -17 30 -22 14 -3 -7 -7 -5 -11 6 -4 10 -3 15 3 11 15 -9 31 42 24 73 -4
15 -14 35 -22 45 -14 15 -10 21 11 18 4 0 7 8 7 19 0 27 16 25 23 -2 4 -12 9
-20 12 -16 3 3 1 17 -4 31 -9 22 -8 25 9 22 21 -4 35 33 25 68 -5 17 -4 19 4
7 6 -8 11 -10 11 -4 0 5 -5 15 -12 22 -9 9 -9 12 2 13 8 1 18 1 23 0 4 0 7 5
7 11 0 9 3 8 10 -2 6 -9 5 -17 -2 -21 -6 -4 6 -6 26 -6 26 1 36 6 36 18 0 11
7 15 25 14 14 -2 25 1 25 6 0 16 -102 14 -132 -2 -11 -6 -18 -6 -18 0 0 5 -3
17 -7 27 -4 12 -3 15 5 10 7 -4 12 -1 12 9 0 11 -5 15 -14 12 -23 -9 -27 20
-5 45 20 23 20 23 14 1 -3 -12 -1 -24 4 -28 6 -3 13 6 17 20 8 31 25 34 19 3
-5 -23 10 -48 28 -48 6 0 3 6 -6 13 -9 6 -15 21 -12 32 2 11 4 22 4 24 1 3 12
-6 25 -18 22 -21 24 -21 22 -5 -2 11 -8 19 -14 19 -20 0 -16 19 6 30 11 5 20
17 19 28 -1 18 -2 18 -15 0 -13 -17 -13 -17 -10 2 5 34 21 45 33 22 5 -11 13
-19 18 -18 4 0 19 1 33 1 14 0 22 4 19 10 -4 6 1 7 10 3 10 -3 21 0 25 7 7 11
13 10 34 -3 32 -21 55 -22 63 -1 3 9 15 20 27 24 16 7 17 9 4 9 -9 1 -20 -3
-23 -9 -10 -15 -25 -12 -19 4 5 13 -3 12 -58 -1 -35 -8 -73 -15 -85 -16 -11
-1 -19 -5 -16 -9 2 -5 -1 -8 -7 -8 -6 0 -9 8 -6 18 4 11 1 19 -6 19 -7 1 -29
5 -48 9 -32 7 -34 6 -21 -9 9 -11 10 -17 2 -17 -6 0 -11 5 -11 10 0 6 -6 10
-13 10 -7 0 -13 -11 -13 -25 0 -18 3 -22 13 -13 18 15 34 -30 20 -57 -10 -19
-11 -19 -21 5 -14 34 -14 34 -30 21 -10 -8 -16 -9 -21 -1 -3 5 -1 10 6 10 7 0
9 3 6 6 -3 4 -2 15 4 26 15 27 5 33 -24 13 -18 -11 -26 -12 -29 -4 -2 7 -9 5
-18 -6 -14 -17 -13 -18 18 -13 26 4 32 1 30 -11 -1 -9 1 -22 5 -28 11 -17 0
-33 -21 -32 -15 0 -15 1 1 8 18 7 18 8 1 21 -10 8 -15 10 -11 3 4 -6 1 -13 -5
-16 -10 -3 -10 -7 0 -19 10 -13 10 -17 -4 -22 -8 -3 -23 -6 -31 -6 -13 0 -13
3 -3 15 7 8 9 15 4 16 -5 0 -17 2 -26 4 -23 4 -25 -43 -3 -51 8 -4 13 -10 10
-15 -3 -4 -12 -6 -20 -3 -10 4 -14 24 -14 73 0 75 11 103 31 83 16 -16 25 -15
25 3 0 8 -4 12 -9 9 -4 -3 -8 2 -8 11 0 10 5 13 12 9 8 -5 9 -2 5 9 -5 13 -1
17 16 17 18 0 19 -2 7 -10 -10 -6 2 -7 37 -3 46 5 106 -4 163 -24 33 -12 64
-11 89 2 27 15 18 19 -29 15 -22 -2 -23 0 -10 16 13 16 13 17 0 10 -8 -4 -6 1
6 11 11 10 21 21 22 26 1 4 6 15 11 25 10 16 10 16 11 0 0 -10 -5 -18 -12 -18
-6 0 -8 -3 -5 -6 3 -4 2 -15 -3 -24 -7 -13 -6 -20 5 -24 8 -3 17 -1 20 4 10
16 45 12 45 -5 0 -15 34 -27 82 -29 28 -1 41 -16 14 -16 -8 0 -18 -5 -22 -11
-4 -8 0 -9 15 -4 12 4 21 2 21 -4 0 -6 7 -11 16 -11 9 0 12 5 8 12 -4 7 -3 8
5 4 6 -4 9 -12 6 -17 -9 -13 4 -49 18 -49 6 0 22 -10 35 -22 14 -13 22 -17 18
-10 -11 19 12 14 24 -5 10 -16 11 -16 6 -1 -9 30 18 10 44 -32 14 -22 28 -40
33 -40 4 0 6 3 4 8 -3 4 1 13 9 20 11 10 15 8 24 -9 7 -11 17 -18 24 -16 10 4
14 -27 7 -53 0 -3 -12 9 -25 25 -19 23 -27 27 -36 18 -9 -8 -7 -13 10 -18 17
-5 19 -10 9 -21 -9 -11 -7 -14 10 -14 12 0 37 -6 55 -14 32 -13 33 -13 29 5
-4 14 0 19 13 18 11 0 14 -3 6 -6 -6 -2 -10 -9 -6 -14 10 -16 23 -10 27 14 3
18 4 17 3 -4 0 -15 5 -33 12 -42 18 -21 -1 -31 -30 -16 -19 9 -21 9 -10 -2 15
-16 16 -33 1 -23 -8 4 -8 0 0 -15 8 -13 8 -21 2 -21 -6 0 -10 -18 -8 -39 1
-21 6 -36 11 -33 5 3 7 -5 4 -16 -4 -14 -2 -22 7 -22 7 0 16 -7 19 -16 3 -8
10 -13 15 -9 5 3 13 1 16 -5 4 -6 3 -10 -2 -9 -21 4 -29 -3 -30 -23 -2 -42 7
-68 25 -69 14 0 14 -2 -3 -9 -18 -8 -18 -9 -2 -9 11 -1 15 -6 11 -13 -4 -7 -3
-8 4 -4 17 10 15 46 -3 46 -8 0 -15 5 -15 11 0 6 6 9 14 6 25 -10 27 6 4 30
-12 13 -17 23 -12 23 5 0 15 -9 22 -20 7 -11 19 -20 27 -20 9 0 25 -16 37 -35
19 -33 22 -35 38 -20 12 11 20 13 25 6 8 -14 -3 -33 -16 -26 -5 3 -6 -1 -3 -9
3 -9 10 -14 14 -11 5 3 10 0 12 -7 6 -16 -23 -49 -35 -41 -5 3 -4 -4 2 -15 7
-14 8 -23 1 -27 -5 -3 -10 -10 -10 -15 0 -6 9 -2 20 7 11 10 20 24 20 32 0 8
2 12 5 9 9 -9 -6 -58 -16 -52 -5 3 -9 -2 -9 -10 0 -19 -14 -21 -32 -3 -7 6
-20 13 -28 15 -8 2 -28 15 -45 30 -28 26 -29 26 -9 2 22 -26 40 -65 26 -56 -5
3 -16 -9 -26 -27 l-18 -32 20 24 c13 16 21 20 26 12 4 -6 4 -15 1 -21 -3 -5
-1 -10 4 -10 6 0 11 5 11 11 0 8 4 8 13 1 8 -7 106 -11 275 -12 246 0 261 1
256 17 -5 17 -5 17 6 1 10 -17 41 -18 405 -18 278 0 396 3 401 11 3 6 1 15 -6
19 -8 5 -9 10 -1 14 6 4 13 -4 17 -19 l6 -25 440 0 439 0 -7 23 c-3 12 -14 31
-22 42 -9 11 5 0 31 -25 56 -53 62 -36 10 29 -55 69 -61 79 -42 64 22 -17 33
-3 11 14 -16 13 -15 13 3 4 25 -12 55 -47 48 -55 -4 -3 0 -6 7 -6 11 0 11 -3
2 -12 -15 -15 -16 -31 0 -22 7 4 8 3 4 -4 -4 -7 -3 -12 3 -12 5 0 12 6 15 13
3 6 3 2 0 -10 -6 -27 26 -49 46 -30 10 9 11 9 6 0 -10 -19 63 -17 101 2 20 10
42 13 64 8 33 -7 33 -7 9 -14 -22 -6 -21 -7 10 -8 24 -1 44 7 65 25 17 14 24
22 16 18 -8 -4 -27 -8 -42 -10 -26 -3 -28 -2 -19 21 5 14 17 39 25 55 9 17 13
35 10 40 -3 6 -2 10 3 10 9 0 18 37 24 93 1 9 5 17 8 17 3 0 5 13 6 29 1 16 5
37 9 47 11 25 14 44 8 44 -13 0 -33 -31 -27 -41 4 -7 3 -10 -2 -7 -5 4 -10 -8
-10 -25 -1 -17 -6 -33 -13 -35 -6 -2 -11 -14 -11 -27 0 -33 -10 -55 -25 -55
-7 0 -15 -7 -19 -15 -3 -8 -1 -15 3 -15 5 0 11 6 14 13 2 6 7 10 9 7 3 -3 1
-16 -4 -30 l-9 -25 -19 22 c-16 20 -18 21 -24 5 -3 -9 -9 -24 -12 -32 -4 -8 1
-6 9 5 15 19 17 19 34 3 10 -11 13 -18 5 -18 -7 0 -12 -5 -12 -11 0 -5 4 -7
10 -4 7 4 7 -3 0 -19 -5 -14 -6 -26 -3 -26 4 0 2 -5 -4 -11 -6 -6 -35 -12 -64
-12 -51 -2 -54 0 -57 23 -2 20 -1 22 8 10 8 -11 9 -5 4 24 -5 30 -4 37 6 31 8
-5 11 -4 6 3 -3 6 8 41 25 78 18 38 32 74 32 81 0 6 4 10 8 7 4 -2 10 2 12 8
3 8 6 5 6 -6 1 -10 -13 -42 -30 -70 -18 -28 -25 -45 -16 -38 12 10 16 10 21 0
3 -7 3 -3 1 8 -4 15 4 31 24 53 17 18 30 34 31 36 3 22 78 123 87 120 7 -2 16
7 19 23 4 15 13 52 20 82 8 30 16 80 19 110 3 42 3 47 -3 20 -5 -20 -12 -42
-17 -50 -5 -8 -8 -23 -7 -32 2 -10 -2 -18 -8 -18 -6 0 -8 -5 -5 -10 6 -10 -49
-108 -69 -122 -5 -3 -16 -4 -24 0 -10 3 -13 1 -8 -6 4 -7 2 -12 -3 -12 -17 0
-13 32 9 78 11 22 20 47 20 54 0 8 7 23 15 34 8 12 11 24 8 28 -3 3 -1 6 5 6
7 0 11 3 11 8 -1 4 -1 16 0 27 l2 20 16 -20 16 -20 -8 20 c-12 30 -11 98 0
111 6 6 16 13 22 15 8 3 6 18 -9 52 -12 26 -26 46 -32 44 -6 -3 -10 -11 -8
-18 2 -8 -10 -1 -27 15 -17 17 -31 32 -31 35 0 2 11 -6 24 -18 22 -20 24 -21
28 -4 3 10 1 27 -3 38 -4 11 -8 14 -8 7 -1 -20 -71 30 -71 51 0 10 -4 16 -9
13 -5 -4 -19 10 -31 29 -12 19 -26 33 -31 30 -5 -4 -6 0 -3 8 3 8 -7 25 -23
39 -35 30 -82 84 -66 74 7 -4 26 6 43 21 40 37 74 148 64 213 l-7 45 -24 -53
c-20 -42 -27 -51 -38 -42 -8 7 -22 10 -32 8 -14 -4 -10 -8 15 -19 31 -13 32
-15 17 -36 -24 -34 -70 -30 -138 11 -87 52 -129 108 -92 122 21 9 19 67 -3 87
-10 10 -28 17 -40 17 -27 0 -28 13 -1 56 14 23 30 35 52 38 76 12 125 12 162
-1 21 -7 45 -11 52 -9 9 4 13 -3 13 -20 0 -23 3 -25 24 -20 15 4 30 1 39 -8
18 -19 37 -2 37 32 0 18 4 23 16 18 15 -6 15 -4 3 10 -7 9 -15 12 -17 6 -2 -6
-9 -9 -17 -6 -7 3 -16 1 -19 -5 -4 -6 -13 -8 -22 -4 -12 4 -12 8 -2 22 7 9 8
13 3 8 -4 -4 -16 9 -24 29 -15 34 -17 36 -31 18 -8 -10 -10 -15 -3 -11 13 8
26 -8 30 -38 3 -18 2 -18 -13 3 -19 28 -53 43 -74 32 -9 -5 -20 -2 -28 6 -7 8
-10 14 -6 14 4 0 -2 9 -14 20 -25 24 -27 31 -9 49 10 11 8 11 -10 2 -14 -7
-20 -17 -16 -30 6 -23 -16 -39 -28 -20 -5 8 -9 9 -9 3 0 -6 -15 -9 -35 -8 -19
2 -35 -1 -35 -6 0 -6 -7 -10 -16 -10 -8 0 -13 4 -10 8 2 4 0 14 -6 22 -8 12
-9 12 -4 -2 7 -23 -10 -33 -18 -11 -6 15 8 32 27 33 4 0 7 8 7 18 0 12 2 14 8
4 5 -7 19 -15 32 -17 13 -2 27 -10 31 -16 4 -7 9 -7 13 -1 3 5 -4 18 -15 28
-12 10 -25 28 -30 39 -8 16 -6 16 7 -2 16 -22 64 -32 64 -15 0 21 -47 61 -75
64 -25 2 -31 8 -33 32 -2 16 2 32 10 37 10 7 10 9 0 9 -16 0 -28 -31 -31 -77
-1 -7 -12 -13 -25 -13 -14 0 -28 -5 -31 -10 -5 -8 -11 -7 -21 1 -9 8 -14 8
-14 1 0 -12 -62 -73 -68 -67 -2 2 3 19 12 37 15 29 15 31 1 17 -18 -18 -25
-75 -9 -72 6 1 9 -10 6 -29 -4 -24 -2 -29 9 -23 12 7 12 6 1 -7 -10 -12 -10
-17 1 -26 9 -8 17 -8 24 -1 7 7 12 4 16 -11 4 -17 3 -19 -9 -9 -13 10 -18 6
-15 -13 3 -18 -10 -6 -19 17 -5 14 -16 25 -23 25 -20 0 -48 -35 -42 -52 3 -8
-1 -21 -9 -28 -13 -10 -17 -9 -22 4 -5 13 -10 10 -24 -16 -10 -18 -23 -32 -30
-30 -6 1 -9 -2 -6 -7 8 -12 -26 -101 -38 -101 -5 0 -14 -7 -20 -15 -6 -8 -29
-15 -51 -16 -61 -3 -66 -13 -10 -20 40 -5 46 -8 28 -14 -26 -8 -31 -25 -8 -25
9 0 18 -7 22 -16 8 -22 -22 -44 -58 -44 -15 0 -30 -4 -33 -9 -4 -5 12 -7 36
-4 l43 6 -24 -26 c-12 -14 -20 -30 -17 -36 4 -6 1 -9 -7 -5 -8 3 -18 1 -22 -5
-3 -6 -16 -11 -28 -12 -20 0 -21 -1 -3 -8 18 -7 18 -8 2 -14 -24 -9 -23 -10
-28 17 -3 14 0 30 5 35 7 7 5 12 -6 17 -9 3 -14 10 -11 15 3 5 1 16 -4 25 -5
9 -6 31 -2 49 7 32 -7 65 -28 65 -6 0 -14 5 -18 12 -5 7 -2 8 7 3 8 -5 7 -1
-3 10 -15 16 -19 16 -35 4 -15 -11 -15 -10 2 9 11 14 15 26 10 30 -19 13 -72
87 -79 110 -4 12 -19 36 -33 52 l-25 30 26 33 c14 17 223 244 465 502 363 388
436 471 418 473 -15 3 -34 -10 -67 -45 -757 -806 -885 -938 -909 -939 -41 -1
-52 6 -46 30 13 43 28 76 36 76 4 0 10 -12 12 -27 2 -16 5 -3 6 27 1 30 4 72
7 93 3 20 -1 47 -7 59 -7 12 -13 56 -14 98 -2 41 -1 69 2 62 3 -6 9 -10 14 -6
14 8 11 -20 -3 -35 -11 -10 -9 -11 5 -5 15 5 18 13 13 38 -4 17 -7 37 -8 44
-1 11 -13 16 -31 13 -5 -1 -6 3 -2 9 3 6 11 8 16 5 5 -4 9 -1 9 4 0 6 -5 11
-11 11 -5 0 -7 5 -3 11 3 6 0 16 -7 21 -11 7 -11 11 -1 15 20 8 13 25 -8 18
-24 -8 -28 16 -5 35 12 10 13 16 4 26 -8 10 -8 14 0 14 6 0 11 16 11 36 0 22
-4 33 -10 29 -7 -4 -8 3 -4 21 5 20 4 25 -6 19 -9 -6 -10 -1 -5 16 7 23 6 23
-7 5 -14 -17 -15 -17 -21 -2 -4 9 -3 15 2 12 9 -6 22 17 20 37 0 7 -5 3 -10
-8 -8 -17 -9 -16 -3 5 3 14 7 34 8 45 4 23 -30 95 -44 95 -6 0 -9 6 -7 13 1 6
-6 11 -15 9 -10 -2 -18 2 -18 8 0 6 -5 8 -10 5 -6 -4 -4 -12 5 -21 20 -21 20
-64 -1 -64 -8 0 -12 -5 -9 -10 4 -6 10 -8 14 -6 4 3 8 -4 8 -15 2 -19 1 -18
-16 2 -10 12 -17 33 -15 46 1 13 -2 20 -8 17 -5 -3 -22 8 -37 25 l-28 31 -259
0 c-250 0 -260 -1 -294 -22z m358 -240 c12 -1 22 -8 22 -16 0 -7 5 -10 12 -6
7 5 9 2 6 -7 -4 -11 5 -14 39 -16 25 -1 51 -7 58 -13 14 -12 40 11 27 25 -4 5
-2 5 5 1 7 -4 9 -14 6 -23 -4 -10 -2 -14 5 -9 6 3 14 1 18 -5 5 -8 3 -9 -6 -4
-9 6 -11 -2 -5 -36 4 -24 12 -50 19 -58 6 -8 11 -47 11 -88 0 -64 2 -73 18
-73 10 0 16 4 13 8 -3 5 1 9 9 9 8 0 11 -5 8 -11 -12 -22 -47 -56 -57 -56 -6
0 -19 -22 -28 -48 -10 -27 -29 -64 -43 -83 -13 -19 -29 -45 -35 -59 -13 -30
-49 -70 -63 -70 -5 0 -4 7 3 15 17 21 9 19 -41 -10 -67 -38 -146 -29 -197 21
-27 28 -121 194 -133 236 -7 24 -16 47 -21 53 -10 11 -11 105 0 105 4 0 24
-16 45 -36 26 -24 44 -34 57 -31 11 3 18 1 14 -4 -3 -5 6 -9 20 -9 14 0 25 5
24 11 -2 6 3 14 11 17 8 3 11 0 7 -7 -4 -6 -2 -11 3 -11 6 0 11 4 11 9 0 18
-28 31 -73 32 -26 1 -47 7 -47 12 0 6 29 8 76 3 62 -5 74 -4 66 7 -6 7 -34 19
-62 26 -27 7 -50 16 -50 20 0 4 -11 8 -26 9 -14 1 -23 -2 -20 -6 3 -5 -1 -9
-9 -9 -23 0 -26 26 -5 47 11 11 20 32 20 46 0 14 4 23 9 20 8 -5 21 15 20 31
0 4 26 18 58 30 56 22 84 24 201 11z m-284 -579 c8 -24 14 -36 15 -26 1 9 4
17 9 17 15 -1 53 -37 56 -54 1 -10 7 -21 13 -24 7 -5 6 -11 -3 -20 -11 -10
-18 -7 -39 15 -19 20 -15 10 14 -36 23 -35 41 -72 41 -81 0 -30 10 -28 53 11
67 62 67 45 -1 -23 -48 -50 -68 -63 -92 -63 -28 0 -32 3 -29 21 0 4 -3 10 -9
13 -5 3 -12 22 -15 41 -5 25 -4 31 3 20 13 -20 13 -7 -2 27 -44 108 -60 188
-41 206 9 10 12 6 27 -44z m254 -438 c17 -1 15 -21 -2 -21 -9 0 -12 -7 -9 -20
3 -11 0 -20 -6 -20 -12 0 109 -115 130 -122 19 -7 -3 -44 -25 -42 -16 2 -16 0
-1 -22 14 -22 14 -24 -15 -39 -17 -9 -28 -20 -25 -26 9 -14 -49 -65 -70 -60
-10 1 -39 16 -65 32 -26 16 -58 29 -71 29 -20 0 -21 -2 -9 -11 12 -9 11 -10
-5 -4 -11 4 -26 9 -32 12 -24 10 -13 -17 15 -34 15 -10 29 -20 32 -24 3 -4 23
-13 45 -20 22 -8 53 -23 68 -34 l27 -20 -25 -72 c-14 -40 -25 -86 -25 -103 0
-33 -48 -107 -83 -128 l-22 -13 21 6 c13 3 28 -1 38 -10 28 -28 19 -38 -26
-31 -50 8 -58 13 -58 32 0 8 -4 13 -8 10 -18 -11 -92 86 -92 119 0 28 -54 68
-83 61 -12 -3 -16 -3 -9 0 18 8 15 21 -8 27 -28 7 -25 34 9 70 16 18 39 43 49
57 19 24 21 24 68 11 95 -26 91 -26 62 -2 -15 12 -32 19 -38 16 -21 -13 -31 7
-15 31 l15 24 -37 -21 c-21 -12 -44 -26 -51 -32 -9 -7 -16 -7 -23 0 -7 7 6 19
42 37 29 14 48 26 41 26 -7 0 -12 12 -12 28 0 21 21 48 94 122 52 52 99 95
105 95 18 0 33 22 28 41 -3 17 -5 16 -15 -6 -6 -14 -11 -19 -11 -12 -1 7 -5
10 -11 7 -13 -8 -13 6 -1 38 10 25 16 26 99 18z m1416 -602 c-2 -4 3 -10 12
-13 8 -3 12 -2 9 3 -3 5 -1 12 5 16 6 4 10 -5 10 -19 0 -14 4 -26 8 -26 13 0
58 -89 65 -126 6 -31 5 -32 -28 -29 -33 3 -35 2 -35 -29 0 -30 15 -56 32 -56
4 0 5 7 2 15 -4 8 -3 15 0 15 15 0 22 -46 15 -92 -5 -29 -18 -61 -33 -79 -15
-17 -26 -36 -26 -44 0 -7 -9 -23 -20 -36 -16 -20 -19 -21 -20 -7 0 9 -8 22
-17 27 -16 9 -16 10 5 11 23 0 26 7 16 33 -3 9 -13 13 -24 10 -11 -3 -16 -11
-13 -19 3 -8 0 -14 -6 -14 -6 0 -11 -7 -11 -15 0 -8 -7 -15 -15 -15 -8 0 -15
-7 -15 -15 0 -8 -5 -15 -11 -15 -5 0 -8 3 -6 8 5 6 -15 11 -69 15 -12 1 -21
10 -22 22 -1 16 1 17 8 5 5 -8 10 -10 10 -5 0 6 19 21 43 35 47 29 123 34 151
11 14 -11 16 -11 16 2 0 9 -7 20 -15 25 -10 5 -13 15 -9 25 8 23 24 21 24 -2
0 -11 4 -22 9 -25 5 -4 6 5 2 21 -5 19 -16 29 -39 35 -18 5 -32 11 -32 14 0 3
10 2 23 -1 17 -5 19 -4 7 4 -20 14 -51 14 -47 -1 2 -13 -51 -19 -59 -7 -3 5 6
20 20 33 14 13 26 29 26 36 0 6 -16 -7 -35 -30 -35 -42 -43 -56 -25 -45 21 13
8 -7 -27 -43 -21 -20 -36 -38 -35 -39 9 -11 -2 -24 -24 -29 -19 -5 -22 -9 -12
-15 10 -7 10 -9 0 -9 -17 0 -29 33 -14 38 18 6 4 22 -19 22 -10 0 -19 6 -19
13 0 8 -4 7 -10 -3 -8 -13 -11 -11 -16 8 -4 12 -11 22 -18 22 -6 0 -3 5 6 11
16 9 16 13 5 37 -14 29 -11 76 4 67 5 -4 5 -14 -2 -26 -9 -18 -8 -19 9 -8 20
13 25 40 9 51 -14 9 -18 38 -5 38 6 0 8 -7 5 -14 -4 -9 -1 -13 6 -10 7 2 13
18 14 34 1 17 9 38 18 46 8 9 15 20 15 25 0 6 5 7 10 4 6 -3 10 2 11 12 0 15
2 14 11 -4 10 -22 48 -33 48 -15 0 12 61 7 86 -6 12 -6 24 -8 28 -5 3 4 15 -3
26 -14 14 -15 16 -23 7 -26 -7 -3 -6 -6 4 -6 28 -2 39 21 23 44 -8 11 -18 21
-22 21 -21 3 -72 30 -72 37 0 4 -4 5 -10 2 -5 -3 -10 -2 -10 4 0 19 19 21 29
4 6 -10 11 -13 11 -7 0 5 -6 16 -12 22 -10 10 -10 15 1 21 11 7 9 10 -8 16
-21 6 -26 16 -15 27 7 8 83 5 78 -3z m-1109 -115 c132 -18 170 -30 195 -61 24
-31 25 -42 4 -50 -17 -6 -108 22 -132 40 -7 6 -25 12 -40 13 -37 4 -102 27
-102 36 0 5 -13 8 -28 8 -28 0 -52 15 -52 33 0 5 12 6 28 2 15 -4 72 -13 127
-21z"/>
<path d="M4265 5540 c-3 -5 -3 -14 0 -20 3 -6 -1 -7 -10 -4 -11 5 -14 2 -9
-10 3 -9 2 -22 -4 -29 -6 -6 -11 -15 -11 -19 -3 -17 -13 -45 -26 -68 -12 -21
-23 -26 -75 -31 -66 -7 -142 -49 -148 -83 -2 -10 -15 -34 -28 -53 -13 -20 -24
-41 -24 -47 1 -6 10 6 21 27 23 43 24 44 99 51 30 3 75 10 99 15 59 12 122 4
145 -18 11 -12 20 -39 23 -72 3 -30 8 -56 13 -59 13 -9 38 -74 44 -115 3 -22
13 -46 23 -52 20 -15 30 -9 15 9 -15 19 19 63 42 55 22 -9 30 28 23 110 -4 56
-11 74 -46 124 -46 65 -53 94 -21 84 11 -3 25 -3 30 0 16 10 -7 34 -28 28 -20
-5 -42 54 -42 116 0 23 -7 46 -16 55 -17 18 -79 22 -89 6z"/>
<path d="M3944 5133 c-14 -10 -17 -80 -4 -88 5 -3 18 3 30 15 21 21 35 27 25
10 -3 -5 1 -10 9 -10 20 0 20 -3 -5 -52 -17 -33 -18 -42 -7 -49 10 -7 10 -9 1
-9 -7 0 -13 -6 -13 -14 0 -16 -27 -29 -42 -20 -6 4 -8 1 -6 -7 3 -8 11 -13 17
-11 7 1 9 -2 6 -8 -4 -6 -14 -9 -22 -6 -9 4 -11 2 -6 -7 9 -14 13 -29 20 -75
4 -27 9 -33 24 -29 11 3 17 1 14 -4 -17 -26 11 -84 67 -145 33 -35 65 -64 70
-64 6 0 4 8 -3 17 -10 11 -10 14 -1 9 7 -4 12 -2 12 4 0 7 7 9 16 6 13 -5 15
-1 10 18 -3 13 -8 30 -11 38 -6 16 46 59 75 61 10 1 16 5 14 9 -3 4 4 8 14 8
11 0 25 7 32 15 7 8 16 13 20 10 4 -3 11 2 14 11 5 13 9 14 21 4 12 -10 15
-10 15 1 0 11 2 11 10 -1 8 -12 10 -11 10 6 0 12 11 33 25 48 29 31 59 86 48
86 -5 0 -14 -9 -21 -20 -13 -21 -58 -28 -64 -9 -2 6 -15 -7 -28 -28 -14 -21
-43 -47 -65 -58 -22 -11 -42 -23 -45 -26 -8 -11 -103 -40 -130 -41 -14 -1 -35
2 -46 6 -26 8 -39 55 -18 62 48 14 49 16 9 28 l-40 12 29 6 c32 6 105 -15 119
-35 5 -8 7 -5 5 8 -4 26 -64 54 -122 57 -41 3 -43 4 -29 20 9 10 24 20 34 23
18 6 18 8 -6 39 l-24 32 23 57 c13 32 26 60 30 64 13 13 5 20 -26 20 -18 0
-42 3 -53 7 -11 3 -25 3 -31 -1z"/>
<path d="M7886 5004 c-3 -9 -6 -28 -6 -44 0 -15 -7 -33 -15 -40 -14 -11 -14
-10 -5 14 14 39 13 43 -10 19 -13 -15 -26 -20 -42 -15 -21 5 -22 4 -9 -11 12
-15 11 -17 -7 -17 -11 0 -22 8 -25 20 -3 11 -7 24 -8 28 -6 13 -42 52 -46 49
-5 -6 19 -71 32 -87 20 -24 26 -50 11 -44 -7 3 -16 -2 -19 -10 -5 -12 0 -16
16 -16 13 0 28 -5 35 -12 15 -15 24 -6 26 25 0 14 4 23 8 21 3 -2 8 2 11 8 3
9 13 4 31 -14 17 -18 21 -28 13 -31 -7 -3 -4 -6 6 -6 13 -1 17 4 13 17 -5 14
6 22 49 41 55 24 79 50 28 30 -33 -13 -74 -19 -69 -10 2 3 7 23 10 44 4 28 3
36 -6 31 -8 -5 -9 -2 -5 9 3 10 2 17 -2 17 -5 0 -12 -7 -15 -16z"/>
<path d="M7710 4892 c0 -16 -6 -22 -22 -23 -17 -1 -19 -2 -5 -6 9 -2 17 -9 17
-14 0 -17 -30 -22 -48 -7 -9 8 -35 20 -57 26 l-40 11 35 -29 c19 -16 44 -30
54 -32 30 -5 30 -25 0 -53 -22 -21 -24 -25 -9 -25 10 0 27 7 37 17 17 15 18
15 18 -3 0 -17 6 -19 38 -16 l39 4 2 -67 c2 -67 17 -119 32 -109 4 2 6 11 3
18 -4 10 2 12 21 9 29 -6 44 -45 25 -68 -7 -8 -10 -21 -7 -29 3 -7 -3 -23 -14
-35 -10 -11 -18 -24 -18 -28 3 -12 -11 -43 -43 -92 -22 -35 -25 -48 -17 -64 8
-14 8 -22 -1 -27 -7 -4 -10 -17 -7 -29 3 -12 1 -24 -4 -27 -5 -3 -9 -12 -9
-21 0 -11 7 -14 24 -11 18 4 23 1 21 -11 -2 -9 -4 -20 -4 -25 -1 -5 -8 -3 -16
4 -9 8 -19 9 -24 4 -4 -5 -25 -103 -45 -219 -21 -115 -42 -229 -47 -252 -11
-53 -12 -83 0 -83 5 0 7 10 3 22 -3 11 -1 19 4 16 5 -4 10 8 11 25 1 17 7 35
13 41 5 5 10 18 10 28 0 10 4 18 9 18 5 0 7 8 4 19 -2 10 3 25 12 35 9 9 14
16 10 16 -3 0 -1 9 5 20 6 11 17 20 25 20 12 0 12 -5 -2 -35 -9 -19 -20 -32
-25 -29 -4 3 -5 -2 -2 -11 8 -21 12 -17 48 62 51 108 66 133 82 133 12 0 13
-4 3 -22 -7 -13 -14 -32 -15 -43 -3 -27 -37 -149 -44 -155 -3 -3 -7 -16 -8
-30 -7 -47 -56 -160 -64 -147 -5 8 -8 7 -8 -5 0 -9 5 -18 11 -20 8 -3 6 -10
-5 -21 -16 -16 -16 -17 2 -17 15 0 24 18 46 93 16 50 41 134 57 185 16 51 29
99 29 108 0 8 5 25 12 37 6 12 13 34 15 48 4 41 21 79 35 79 10 0 10 2 1 8
-13 8 9 112 40 185 12 27 13 37 4 37 -7 1 -6 6 4 13 22 17 33 71 19 97 -8 15
-8 20 2 18 7 -2 13 6 15 17 6 48 14 101 18 112 2 6 -3 19 -10 30 -17 21 -19
37 -5 28 6 -4 10 11 10 37 1 24 7 59 14 79 11 32 11 36 -4 32 -10 -3 -21 5
-28 22 -11 23 -16 26 -40 20 -39 -11 -60 -8 -79 10 -9 10 -25 14 -36 11 -12
-3 -28 0 -36 7 -8 7 -5 -3 8 -21 12 -17 31 -37 42 -42 14 -8 19 -21 19 -57 l0
-46 -22 29 c-12 16 -44 49 -70 75 -26 25 -48 51 -48 58 0 7 -5 9 -12 5 -10 -6
-10 -5 -1 7 6 8 10 29 9 46 -2 37 -16 58 -16 25z"/>
<path d="M3020 2249 c0 -7 -14 -8 -42 -4 -39 7 -41 6 -29 -9 7 -9 26 -16 42
-16 18 0 32 -7 39 -19 12 -24 13 -61 1 -61 -5 0 -7 -9 -4 -20 4 -14 0 -20 -11
-20 -9 0 -16 8 -16 20 0 25 -21 70 -32 70 -5 0 -7 4 -3 9 7 12 -29 33 -39 24
-3 -3 -6 -162 -6 -352 0 -334 1 -345 18 -319 32 49 93 108 110 108 10 0 33
-11 53 -24 l35 -24 66 18 c37 10 102 24 145 31 43 6 84 16 91 22 7 5 27 37 44
71 46 86 174 211 263 258 76 40 207 78 266 78 25 0 66 15 125 47 49 26 130 64
179 85 l90 37 -692 1 c-493 0 -693 -3 -693 -11z"/>
<path d="M4540 2245 c-25 -8 -68 -20 -97 -29 -28 -8 -104 -40 -170 -71 l-118
-57 50 -14 c27 -7 66 -20 85 -29 33 -15 40 -14 130 10 52 14 105 25 118 25 21
0 23 -4 20 -37 l-3 -38 -69 -15 c-60 -13 -67 -17 -53 -28 9 -8 20 -11 24 -9
10 6 100 -142 134 -217 33 -76 55 -232 37 -268 -13 -27 -103 -25 -118 2 -16
29 -30 24 -30 -10 0 -18 10 -39 26 -55 14 -14 22 -30 18 -37 -4 -6 -9 -25 -11
-42 -7 -58 -9 -66 -20 -77 -7 -7 -21 -4 -44 10 -36 22 -69 27 -69 11 0 -11 53
-40 75 -40 21 0 20 -48 -3 -81 -36 -55 -124 -159 -135 -160 -7 -1 -20 -1 -29
0 -21 3 -52 -14 -98 -50 -19 -16 -50 -31 -67 -35 -34 -7 -35 -4 -45 60 -2 10
-12 24 -23 30 -11 6 -26 19 -33 29 -7 9 -21 17 -31 17 -23 0 -90 51 -91 68 0
8 -9 16 -20 19 -23 6 -26 19 -7 26 7 4 6 6 -4 6 -9 1 -23 10 -30 22 -12 17
-20 20 -52 14 -47 -9 -47 -27 -2 -45 60 -24 68 -46 21 -63 -6 -2 0 -19 12 -39
12 -19 22 -42 22 -49 0 -11 -2 -11 -10 1 -8 12 -10 12 -15 -2 -6 -15 -10 -15
-40 3 -38 23 -50 46 -35 64 8 10 6 15 -7 18 -10 3 -28 8 -39 11 -16 5 -26 0
-39 -20 -9 -15 -12 -23 -6 -20 6 4 11 3 11 -2 0 -16 -30 -23 -36 -9 -3 8 -16
12 -32 9 -22 -3 -33 4 -58 35 -43 53 -78 121 -84 162 -5 37 -22 50 -39 29 -10
-13 -55 -68 -133 -166 -20 -26 -37 -50 -37 -55 -1 -4 -26 -41 -56 -82 -30 -40
-71 -101 -90 -134 -20 -34 -40 -61 -44 -61 -9 0 -41 33 -41 43 0 8 94 137 150
207 143 178 195 240 230 278 41 45 43 50 31 92 -8 25 -8 25 -51 -20 -23 -25
-81 -89 -127 -142 -78 -90 -103 -112 -103 -90 0 5 21 35 46 68 26 32 64 86 87
119 22 33 60 81 85 108 l46 47 81 0 c64 0 91 5 132 25 47 21 54 22 68 9 8 -9
15 -22 15 -29 0 -8 13 -21 30 -30 26 -13 34 -14 62 -1 45 19 92 70 84 91 -3 9
-15 19 -26 22 -14 4 -20 14 -20 34 0 40 -49 66 -91 49 -15 -7 -27 -17 -26 -24
1 -7 -24 -12 -77 -13 -68 -2 -83 -6 -105 -26 -42 -39 -61 -41 -93 -11 l-28 28
-136 -17 c-130 -16 -224 -44 -224 -66 0 -11 -83 -51 -105 -51 -7 0 -16 -7 -19
-16 -11 -28 -7 -656 4 -649 6 3 10 -1 10 -10 0 -9 -4 -13 -10 -10 -6 4 -10
-11 -10 -36 0 -34 2 -41 13 -30 6 6 13 16 13 22 1 5 2 14 3 20 0 5 16 9 33 7
43 -4 47 -27 11 -66 -76 -82 -72 -65 -73 -315 0 -231 1 -238 39 -244 8 -1 26
-4 40 -8 14 -3 21 -2 16 2 -6 4 -21 23 -34 40 -25 37 -27 37 71 34 37 -1 69 2
73 8 11 19 51 -17 103 -92 27 -40 54 -85 59 -102 l10 -30 153 -3 154 -3 -21
23 c-11 13 -28 38 -37 56 -9 17 -23 32 -30 32 -15 0 -86 90 -86 109 0 6 5 12
10 12 48 6 106 -10 131 -37 20 -21 21 -25 7 -41 -8 -10 -18 -26 -21 -35 -5
-14 -2 -16 17 -8 20 7 26 4 39 -23 9 -18 19 -44 22 -59 l5 -28 134 0 c110 0
135 3 140 15 6 17 52 14 49 -3 -2 -7 147 -11 462 -11 256 0 465 3 465 6 0 11
-107 760 -165 1158 -64 435 -125 911 -125 971 0 39 2 42 33 47 17 3 36 2 40
-3 4 -4 21 -97 37 -206 40 -276 40 -274 59 -274 9 0 26 6 37 14 15 11 40 12
114 6 122 -10 150 -20 150 -58 0 -16 -13 -91 -29 -168 -16 -76 -29 -167 -29
-201 0 -40 -5 -70 -16 -85 -9 -12 -16 -32 -16 -43 0 -11 -6 -49 -14 -85 -35
-160 -61 -471 -47 -555 6 -33 24 -152 41 -265 17 -113 33 -217 36 -233 l6 -27
308 0 309 0 26 44 c27 46 59 64 107 60 23 -2 28 3 40 39 14 42 18 44 50 32 13
-5 16 -2 13 14 -2 12 0 21 6 21 5 0 9 -4 9 -10 0 -5 6 -7 14 -4 8 3 17 1 20
-4 4 -6 -4 -9 -19 -8 -34 4 -22 -11 14 -16 23 -3 28 -1 23 11 -4 13 -2 13 15
-2 11 -10 36 -17 59 -17 21 0 35 4 29 8 -21 15 -15 32 12 32 14 0 24 -3 20 -6
-13 -13 18 -29 51 -26 24 3 30 7 21 13 -12 8 -11 11 1 19 22 14 33 12 26 -6
-5 -13 1 -15 39 -10 53 8 58 1 13 -19 -49 -21 -16 -18 49 5 72 25 74 25 69 -4
-3 -16 1 -26 10 -28 8 -2 -22 -28 -66 -57 -109 -74 -114 -81 -57 -81 25 0 49
4 52 10 3 5 11 10 16 10 6 0 7 -5 4 -11 -5 -7 168 -9 577 -6 534 4 594 6 713
25 112 18 143 20 225 11 52 -6 120 -17 151 -25 31 -8 71 -14 89 -14 l33 0 -24
18 c-13 10 -54 33 -91 50 -36 17 -69 36 -73 41 -3 6 -23 15 -45 21 -21 6 -45
16 -52 23 -13 13 -37 15 -215 22 -45 1 -89 5 -98 8 -8 4 -15 2 -15 -4 0 -7
-14 -10 -35 -7 -19 2 -35 1 -35 -3 0 -4 -17 -10 -37 -14 -21 -4 -43 -11 -50
-17 -7 -5 -17 -7 -22 -4 -5 4 -12 2 -16 -4 -4 -6 -11 -8 -16 -5 -5 4 -9 1 -9
-4 0 -6 -7 -11 -16 -11 -9 0 -28 -8 -42 -18 -15 -10 -40 -24 -57 -32 -16 -8
-43 -23 -58 -33 -16 -11 -31 -17 -34 -14 -11 12 48 57 143 108 68 37 93 55 79
57 -11 2 -32 8 -47 14 -40 15 -25 34 79 105 114 77 229 114 353 116 53 1 96
-4 115 -12 17 -8 35 -15 41 -16 7 -2 37 -19 68 -39 30 -19 83 -49 116 -66 66
-33 72 -43 89 -134 6 -31 19 -77 30 -101 l20 -45 150 0 151 0 0 224 c0 170 -3
228 -13 238 -16 16 -37 86 -37 122 0 14 -4 26 -9 26 -7 0 -18 34 -23 78 -1 6
-15 12 -31 12 -24 0 -27 3 -18 14 7 8 8 17 3 20 -16 10 -20 53 -5 53 8 0 12
-6 9 -12 -2 -6 2 -12 10 -12 7 0 16 8 19 18 3 10 12 16 19 13 18 -7 28 35 20
83 -4 21 -8 49 -9 63 -4 48 -5 51 -15 45 -5 -3 -7 0 -4 9 6 16 -22 222 -34
240 -4 6 -7 25 -8 41 -2 50 -16 95 -27 88 -5 -3 -7 -2 -4 4 8 13 -15 63 -29
63 -6 0 -16 24 -23 53 -6 28 -14 61 -17 72 -3 11 -6 28 -6 38 1 9 -3 17 -8 17
-4 0 -7 13 -6 29 1 17 -2 28 -6 25 -10 -6 -11 20 -1 29 3 4 30 -7 60 -24 l54
-31 -7 37 -7 38 77 -6 76 -5 0 88 c0 62 -4 90 -12 93 -10 4 -10 7 0 18 8 9 12
58 12 170 0 141 -2 158 -17 163 -78 23 -261 26 -1915 26 -1500 0 -1767 -2
-1762 -14 3 -9 -4 -16 -21 -20 -32 -8 -65 1 -65 18 0 17 -46 17 -100 1z m1938
-493 c2 -7 8 -12 13 -12 6 0 7 4 4 10 -3 6 1 7 9 4 9 -3 16 -10 16 -15 0 -5
10 -9 23 -9 23 0 63 -51 50 -64 -13 -13 -11 -35 2 -30 9 4 12 -1 8 -14 -5 -21
67 -170 100 -206 11 -13 13 -22 6 -27 -7 -4 -6 -8 4 -12 10 -4 13 -26 12 -98
0 -56 -5 -94 -11 -96 -6 -2 -20 -10 -30 -18 -18 -15 -18 -15 1 -8 17 6 18 5 7
-9 -7 -9 -15 -38 -19 -65 -3 -26 -6 -52 -7 -58 0 -5 -5 -13 -9 -16 -11 -8 3
-40 15 -33 11 7 -10 -32 -31 -58 -8 -10 -11 -18 -6 -18 4 0 1 -8 -6 -17 -12
-14 -12 -16 1 -9 9 4 8 2 -2 -7 -10 -8 -16 -16 -13 -19 3 -2 -11 -9 -30 -15
-19 -6 -33 -8 -30 -4 2 5 -8 6 -23 3 -15 -3 -21 -7 -14 -10 6 -2 9 -8 6 -13
-3 -6 -12 -5 -22 3 -9 7 -13 8 -9 2 4 -7 -6 -11 -29 -12 -23 -1 -33 2 -28 10
4 7 3 8 -5 4 -16 -10 -71 -17 -70 -8 3 18 -2 24 -13 15 -18 -14 -59 -23 -52
-12 3 5 -2 9 -10 9 -9 0 -16 -4 -16 -9 0 -5 -13 -11 -30 -13 -16 -3 -30 -1
-30 2 0 4 -11 5 -25 2 -15 -2 -25 0 -25 7 0 7 5 9 12 5 7 -5 8 -3 4 5 -5 7
-14 10 -22 7 -8 -3 -14 -1 -14 4 0 6 6 10 13 11 10 0 44 4 96 11 19 2 31 -3
26 -12 -3 -5 2 -10 13 -10 15 0 18 6 14 28 -5 35 -27 50 -89 57 -26 4 -64 11
-83 18 -19 6 -37 11 -40 12 -26 3 -35 55 -15 98 6 15 15 17 43 12 59 -11 113
22 91 56 -7 11 -9 11 -9 -3 0 -21 -11 -23 -28 -6 -7 7 -45 13 -92 13 -52 1
-85 6 -93 15 -9 10 -9 14 2 17 31 12 50 42 47 78 -1 19 1 35 5 35 4 0 6 12 4
26 -2 19 1 24 13 19 12 -4 13 -3 2 10 -15 18 -31 97 -19 89 5 -3 9 2 9 11 0 8
-7 18 -15 21 -8 3 -17 14 -20 24 -3 11 -11 17 -18 15 -14 -6 -25 2 -52 34 -11
14 -14 21 -7 17 6 -4 12 -3 12 2 0 5 9 12 19 15 15 3 18 1 14 -12 -4 -11 -1
-10 10 4 8 11 13 24 10 29 -3 5 0 6 8 4 8 -3 13 -11 11 -18 -2 -10 0 -11 11
-2 15 13 14 17 21 -58 2 -25 4 -48 5 -52 1 -5 7 -8 14 -8 7 0 21 -6 32 -14 16
-11 19 -22 24 -71 1 -5 5 -4 9 3 6 9 14 7 31 -9 l23 -22 -7 21 c-5 17 -3 21 9
16 9 -3 13 -10 10 -16 -7 -12 25 -48 43 -48 7 0 13 -6 13 -12 0 -9 2 -10 8 -2
4 7 25 10 47 9 57 -4 127 10 137 28 6 12 15 14 41 6 48 -14 54 -12 61 23 5 25
2 34 -11 43 -32 18 -62 24 -67 12 -2 -7 -5 -4 -5 6 -1 15 -23 23 -53 18 -13
-1 -60 27 -51 31 22 13 43 17 38 8 -3 -6 -2 -10 4 -10 5 0 12 6 14 13 4 9 8 9
15 -2 5 -7 15 -11 21 -7 11 7 47 -8 69 -30 12 -13 82 -17 82 -5 0 12 -119 54
-139 48 -12 -3 -22 1 -25 10 -3 8 -10 11 -16 8 -6 -4 -7 1 -3 11 4 12 3 15 -5
10 -6 -4 -24 1 -39 11 -25 17 -27 17 -20 1 8 -22 -4 -30 -23 -16 -12 8 -11 8
5 3 15 -5 17 -3 8 6 -13 13 -33 4 -33 -16 0 -10 -7 -12 -30 -5 -17 5 -40 7
-52 5 -11 -3 -40 -6 -63 -7 -24 -2 -41 -6 -38 -10 2 -5 -1 -8 -6 -8 -6 0 -11
5 -11 11 0 8 -4 8 -14 0 -11 -9 -13 -6 -10 16 2 16 1 20 -2 11 -3 -10 -10 -18
-15 -18 -6 0 -7 -6 -3 -12 5 -10 4 -10 -5 -2 -14 13 -4 67 10 58 5 -3 9 2 9
10 0 8 4 18 10 21 6 3 7 -1 4 -9 -9 -25 11 -19 32 9 13 18 24 23 41 19 26 -7
29 5 12 39 -11 22 -11 22 10 0 26 -27 33 -29 24 -6 -4 11 -3 14 5 9 8 -5 10
-2 6 8 -3 9 -10 13 -15 10 -19 -11 -8 15 15 37 16 16 21 27 15 35 -6 7 -4 16
6 24 12 10 15 10 15 0 0 -10 3 -10 15 0 12 10 15 10 16 -1 0 -10 2 -11 6 -1 2
6 14 12 24 12 11 0 18 3 16 8 -3 4 25 7 61 6 41 0 67 -5 70 -12z m-1316 -88
c2 -20 9 -28 28 -30 39 -4 118 -22 198 -46 l73 -21 -6 -39 c-5 -26 -3 -38 5
-38 6 0 9 -4 5 -10 -7 -12 33 -77 74 -117 17 -18 31 -39 31 -47 0 -9 7 -16 15
-16 8 0 15 -6 16 -12 1 -44 18 -150 30 -191 12 -42 11 -49 -1 -57 -13 -8 -12
-10 2 -10 34 0 22 -34 -28 -82 -28 -27 -62 -68 -75 -93 -23 -43 -23 -44 -5
-64 18 -20 18 -21 -8 -31 -37 -14 -51 -13 -66 5 -20 25 -30 17 -30 -22 0 -40
-28 -94 -63 -124 -12 -10 -51 -30 -87 -44 -57 -22 -81 -25 -181 -25 -81 0
-120 4 -127 13 -13 16 1 97 35 202 36 111 56 160 61 146 7 -20 32 8 32 35 0
17 6 24 20 24 11 0 23 6 26 14 3 8 13 13 22 11 21 -3 17 -35 -6 -52 -14 -11
-13 -13 10 -13 15 0 34 -3 42 -6 14 -5 15 -2 6 22 -6 16 -10 46 -8 68 2 29 -1
41 -16 50 -14 8 -20 8 -23 -1 -6 -17 -77 -17 -91 0 -20 23 15 494 43 581 3 9
7 23 10 31 8 25 33 17 37 -11z m2472 -176 c20 -106 41 -206 46 -223 6 -16 12
-55 15 -85 3 -30 26 -180 51 -333 l46 -279 -24 -25 c-33 -35 -59 -48 -68 -33
-5 8 -10 9 -14 2 -4 -6 -17 -7 -34 -3 -15 5 -43 7 -62 6 -19 -1 -91 17 -163
41 -71 24 -145 44 -163 44 -33 0 -90 29 -287 142 -41 24 -92 43 -130 50 -34 7
-54 14 -44 16 9 2 17 12 17 22 0 13 14 24 45 36 25 9 43 19 41 21 -2 3 13 21
35 40 21 19 39 41 39 48 0 7 7 18 15 25 20 16 19 45 -2 80 -15 26 -15 30 6 64
12 19 20 40 16 46 -3 5 -1 10 4 10 14 0 13 46 -2 90 -9 24 -10 45 -3 67 5 20
5 70 0 132 -8 87 -7 102 6 106 8 2 65 13 125 24 116 21 290 45 436 59 14 2 23
-31 53 -190z m-3042 -329 c4 -19 12 -74 18 -124 6 -49 21 -155 34 -235 14 -80
28 -169 31 -198 l7 -53 -101 2 c-68 2 -105 -1 -113 -9 -9 -9 -9 -12 2 -13 8
-1 20 -2 25 -4 6 -1 15 -3 20 -4 6 0 -19 -17 -55 -37 -35 -20 -96 -65 -135
-100 -67 -61 -105 -78 -120 -53 -4 6 2 21 14 33 12 12 18 27 14 31 -5 5 -1 4
7 -2 9 -7 21 -8 28 -4 9 5 7 13 -9 27 -15 12 -20 14 -15 4 6 -12 5 -12 -6 1
-10 12 -35 15 -116 15 -56 -1 -102 2 -102 5 0 7 -117 2 -138 -6 -13 -5 -52 28
-52 43 0 5 -16 14 -36 20 -28 8 -36 8 -40 -3 -3 -8 -12 -11 -20 -8 -8 3 -11
10 -8 15 4 6 -3 5 -15 -1 -17 -10 -25 -9 -37 4 -17 16 -39 21 -30 6 4 -5 -3
-7 -15 -4 -12 4 -25 0 -29 -7 -9 -14 -28 -20 -68 -22 -12 0 -25 -4 -28 -9 -7
-11 -64 -12 -64 -1 0 5 -6 9 -12 9 -7 0 -47 3 -89 7 -62 5 -79 3 -89 -9 -27
-33 -59 -17 -153 73 -51 48 -93 90 -95 94 -3 7 119 171 181 243 32 37 37 39
98 41 35 1 78 5 95 9 22 5 35 2 47 -9 21 -22 44 -20 57 4 13 23 40 27 40 5 0
-8 -4 -15 -9 -15 -5 0 -4 -17 1 -40 8 -29 16 -40 29 -40 20 0 26 16 9 22 -12
4 30 52 50 56 8 2 18 8 21 13 3 6 11 4 18 -5 16 -19 83 -43 144 -51 26 -3 47
-10 47 -15 0 -4 18 -15 40 -24 31 -12 63 -15 138 -11 174 8 191 12 206 50 23
55 53 75 112 75 49 0 55 3 99 48 26 26 55 64 66 84 10 20 30 49 44 64 14 15
25 33 25 41 0 28 25 6 32 -28z m1505 -432 c3 9 12 9 29 2 14 -5 43 -9 65 -9
28 0 38 -4 33 -12 -5 -7 -3 -8 7 -3 12 8 89 8 98 0 2 -2 0 -16 -3 -30 -6 -22
-9 -25 -22 -14 -12 10 -13 9 -8 -6 5 -12 4 -16 -3 -12 -6 4 -17 1 -25 -6 -17
-17 -48 -29 -48 -18 0 4 -15 7 -32 6 -43 -3 -73 12 -87 41 -6 13 -15 24 -20
24 -5 0 -11 11 -13 25 -5 22 -3 23 10 13 12 -10 16 -10 19 -1z"/>
</g>
</svg>
